<svg width="40" height="40" viewBox="0 0 40 40" fill="none" xmlns="http://www.w3.org/2000/svg">
<mask id="mask0_5_270" style="mask-type:alpha" maskUnits="userSpaceOnUse" x="0" y="0" width="40" height="40">
<rect width="40" height="40" fill="#D9D9D9"/>
</mask>
<g mask="url(#mask0_5_270)">
<path d="M9.41668 29.0833C11.0556 27.9814 12.7361 27.1365 14.4583 26.5488C16.1806 25.9607 18.0278 25.6667 20 25.6667C21.9722 25.6667 23.824 25.9607 25.5554 26.5488C27.2871 27.1365 28.9724 27.9814 30.6113 29.0833C31.7502 27.7036 32.5811 26.2638 33.1042 24.7638C33.6272 23.2638 33.8888 21.6758 33.8888 20C33.8888 16.0833 32.5532 12.7893 29.8821 10.1179C27.2107 7.44681 23.9167 6.11125 20 6.11125C16.0833 6.11125 12.7893 7.44681 10.1179 10.1179C7.44682 12.7893 6.11126 16.0833 6.11126 20C6.11126 21.6758 6.37737 23.2638 6.90959 24.7638C7.44209 26.2638 8.27779 27.7036 9.41668 29.0833ZM19.995 21.3888C18.3781 21.3888 17.0163 20.8339 15.9096 19.7242C14.8032 18.6142 14.25 17.2507 14.25 15.6338C14.25 14.0168 14.805 12.6551 15.915 11.5488C17.0247 10.4421 18.3881 9.88875 20.005 9.88875C21.622 9.88875 22.9838 10.4438 24.0904 11.5538C25.1968 12.6638 25.75 14.0272 25.75 15.6442C25.75 17.2611 25.195 18.6228 24.085 19.7292C22.9753 20.8356 21.612 21.3888 19.995 21.3888ZM19.9888 36.6667C17.6804 36.6667 15.5113 36.2292 13.4813 35.3542C11.451 34.4792 9.68501 33.2871 8.18334 31.7779C6.6814 30.2685 5.49765 28.5014 4.63209 26.4767C3.76626 24.4519 3.33334 22.2885 3.33334 19.9863C3.33334 17.684 3.77084 15.5204 4.64584 13.4954C5.52084 11.4707 6.71293 9.70834 8.22209 8.20834C9.73154 6.70834 11.4986 5.52084 13.5233 4.64584C15.5481 3.77084 17.7115 3.33334 20.0138 3.33334C22.316 3.33334 24.4796 3.77084 26.5046 4.64584C28.5293 5.52084 30.2917 6.70834 31.7917 8.20834C33.2917 9.70834 34.4792 11.4722 35.3542 13.5C36.2292 15.5278 36.6667 17.6919 36.6667 19.9925C36.6667 22.2933 36.2292 24.4554 35.3542 26.4788C34.4792 28.5021 33.2917 30.2685 31.7917 31.7779C30.2917 33.2871 28.5265 34.4792 26.4963 35.3542C24.4663 36.2292 22.2971 36.6667 19.9888 36.6667Z" fill="#1C1B1F"/>
</g>
</svg>
