<svg width="30" height="30" viewBox="0 0 30 30" fill="none" xmlns="http://www.w3.org/2000/svg">
<path d="M1.63443 27.7818C1.40976 28.3943 1.2006 29.0098 1.00695 29.6284C0.934589 29.8767 0.686492 30.0422 0.41772 29.9905C0.107599 29.9388 -0.0681364 29.6181 0.0249 29.3077C0.332954 28.3277 0.677533 27.3573 1.05864 26.3966V21.5282C1.05579 18.5206 1.70885 15.5486 2.97223 12.8197C4.23561 10.0907 6.07887 7.67055 8.37336 5.7281C12.7368 2.03306 18.2668 0.00374921 23.9828 0H28.2935C28.6371 0.00117055 28.9724 0.105527 29.256 0.299559C29.5397 0.493591 29.7586 0.768365 29.8844 1.08831C29.9671 1.30142 30.0064 1.53004 29.9992 1.75867C29.9961 2.20972 29.8234 2.64215 29.5174 2.97319C27.205 5.63217 25.1446 8.50045 23.3626 11.541C23.2012 11.8079 22.9736 12.0286 22.7019 12.1815C22.4303 12.3345 22.1237 12.4146 21.812 12.4142H20.4474L21.138 13.5521C21.3037 13.8259 21.3953 14.1382 21.4036 14.4582C21.4119 14.7783 21.3368 15.0949 21.1855 15.377C20.7755 16.1384 20.3741 16.9043 19.9812 17.6746C19.0861 19.4384 17.8512 21.0075 16.3476 22.2917C15.9933 22.5874 15.5478 22.7518 15.0865 22.7572H13.7116C13.7715 22.9124 13.8026 23.0789 13.8026 23.2465C13.804 23.4962 13.7338 23.7411 13.6002 23.952C13.4666 24.1629 13.2752 24.331 13.049 24.4362C11.0104 25.4199 8.77577 25.9288 6.51264 25.9249H2.68781L1.63443 27.7818ZM3.30598 23.8559H6.51264C7.90361 23.8588 9.28593 23.637 10.6062 23.1989L9.95705 22.8958C9.71914 22.8005 9.52036 22.6276 9.39296 22.4051C9.26556 22.1826 9.21699 21.9235 9.25514 21.6699C9.29587 21.3953 9.43466 21.1447 9.64581 20.9646C9.85697 20.7844 10.1262 20.687 10.4036 20.6903H15.0865C16.3382 19.5752 17.3722 18.2373 18.136 16.7446C18.4265 16.1612 18.9692 15.1391 19.3031 14.5142L17.9664 12.3107C17.7986 12.0313 17.7414 11.6991 17.8062 11.3796H12.6014C12.1817 11.7672 11.7692 12.1638 11.364 12.5693C8.06666 15.8547 5.34365 19.6697 3.30598 23.8559ZM24.3529 6.20708C25.3621 4.78162 26.433 3.40096 27.5626 2.06903H23.9828C21.8127 2.07017 19.6546 2.39085 17.5778 3.02078V6.19673C19.4316 4.98409 21.3775 3.91873 23.3977 3.01043C23.6458 2.89664 23.9456 3.00009 24.0696 3.24837C24.1023 3.31172 24.1215 3.38115 24.1261 3.45229C24.1307 3.52344 24.1205 3.59476 24.0963 3.66179C24.072 3.72882 24.0342 3.7901 23.9851 3.8418C23.936 3.89349 23.8768 3.93448 23.8112 3.96218C22.3354 4.62765 20.8989 5.37717 19.5088 6.20708H24.3529ZM12.3264 5.40016C11.4078 5.97078 10.5323 6.60802 9.70689 7.30676C7.64255 9.05572 5.98428 11.2343 4.84771 13.6905C3.71113 16.1467 3.12361 18.8214 3.12611 21.5282V21.9472C5.48952 17.5388 8.6029 13.5766 12.3264 10.2386V5.40016Z" fill="#E7ECF2"/>
</svg>
