<svg width="40" height="38" viewBox="0 0 40 38" fill="none" xmlns="http://www.w3.org/2000/svg">
<path d="M2.17924 35.1903C1.87969 35.9661 1.60081 36.7458 1.3426 37.5294C1.24612 37.8439 0.915323 38.0535 0.55696 37.988C0.143465 37.9225 -0.0908485 37.5163 0.0332 37.1231C0.443938 35.8818 0.903377 34.6526 1.41152 33.4357V27.2691C1.40773 23.4594 2.27847 19.6949 3.96298 16.2382C5.64748 12.7816 8.10516 9.71602 11.1645 7.25559C16.9824 2.57521 24.3557 0.004749 31.9771 0H37.7246C38.1827 0.0014827 38.6298 0.133667 39.008 0.379442C39.3862 0.625216 39.6781 0.973262 39.8459 1.37852C39.9561 1.64846 40.0085 1.93806 39.9989 2.22765C39.9947 2.79898 39.7646 3.34672 39.3566 3.76604C36.2734 7.13408 33.5261 10.7672 31.1501 14.6186C30.9349 14.9567 30.6315 15.2362 30.2692 15.43C29.907 15.6237 29.4982 15.7252 29.0826 15.7246H27.2632L28.1839 17.166C28.4049 17.5128 28.527 17.9084 28.5381 18.3138C28.5493 18.7191 28.449 19.1202 28.2473 19.4775C27.7007 20.4419 27.1654 21.4121 26.6416 22.3879C25.4481 24.6219 23.8016 26.6095 21.7968 28.2361C21.3243 28.6107 20.7305 28.819 20.1153 28.8258H18.2821C18.3621 29.0224 18.4034 29.2333 18.4034 29.4456C18.4053 29.7619 18.3117 30.0721 18.1336 30.3392C17.9554 30.6064 17.7003 30.8193 17.3986 30.9526C14.6806 32.1985 11.701 32.8432 8.68352 32.8382H3.58374L2.17924 35.1903ZM4.40798 30.2174H8.68352C10.5381 30.2212 12.3812 29.9402 14.1417 29.3853L13.2761 29.0014C12.9588 28.8807 12.6938 28.6616 12.5239 28.3798C12.3541 28.0979 12.2893 27.7698 12.3402 27.4486C12.3945 27.1007 12.5795 26.7833 12.8611 26.5551C13.1426 26.327 13.5016 26.2035 13.8715 26.2077H20.1153C21.7842 24.7953 23.1629 23.1006 24.1813 21.2099C24.5686 20.4708 25.2922 19.1761 25.7374 18.3847L23.9553 15.5936C23.7314 15.2397 23.6552 14.8189 23.7416 14.4142H16.8018C16.2422 14.9052 15.6923 15.4075 15.152 15.9211C10.7555 20.0826 7.12487 24.9149 4.40798 30.2174ZM32.4705 7.8623C33.8161 6.05672 35.244 4.30788 36.7502 2.62077H31.9771C29.0836 2.62221 26.2061 3.02841 23.437 3.82632V7.84919C25.9088 6.31318 28.5034 4.96372 31.1969 3.81321C31.5277 3.66907 31.9274 3.80011 32.0928 4.1146C32.1364 4.19485 32.162 4.28279 32.1682 4.37291C32.1743 4.46302 32.1607 4.55337 32.1284 4.63827C32.096 4.72317 32.0456 4.8008 31.9801 4.86628C31.9147 4.93175 31.8358 4.98367 31.7483 5.01877C29.7805 5.86169 27.8652 6.81109 26.0117 7.8623H32.4705ZM16.4352 6.8402C15.2104 7.56299 14.0431 8.37016 12.9425 9.25523C10.1901 11.4706 7.97904 14.2301 6.46361 17.3412C4.94818 20.4524 4.16482 23.8405 4.16815 27.2691V27.7998C7.31936 22.2159 11.4705 17.1971 16.4352 12.9689V6.8402Z" fill="#E79A0E"/>
</svg>
