<svg width="50" height="50" viewBox="0 0 50 50" fill="none" xmlns="http://www.w3.org/2000/svg">
<path d="M8.17924 41.1903C7.87969 41.9661 7.60081 42.7458 7.3426 43.5294C7.24612 43.8439 6.91532 44.0535 6.55696 43.988C6.14347 43.9225 5.90915 43.5163 6.0332 43.1231C6.44394 41.8818 6.90338 40.6526 7.41152 39.4357V33.2691C7.40773 29.4594 8.27847 25.6949 9.96298 22.2382C11.6475 18.7816 14.1052 15.716 17.1645 13.2556C22.9824 8.57521 30.3557 6.00475 37.9771 6H43.7246C44.1827 6.00148 44.6298 6.13367 45.008 6.37944C45.3862 6.62522 45.6781 6.97326 45.8459 7.37852C45.9561 7.64846 46.0085 7.93806 45.9989 8.22765C45.9947 8.79898 45.7646 9.34672 45.3566 9.76604C42.2734 13.1341 39.5261 16.7672 37.1501 20.6186C36.9349 20.9567 36.6315 21.2362 36.2692 21.43C35.907 21.6237 35.4982 21.7252 35.0826 21.7246H33.2632L34.1839 23.166C34.4049 23.5128 34.527 23.9084 34.5381 24.3138C34.5493 24.7191 34.449 25.1202 34.2473 25.4775C33.7007 26.4419 33.1654 27.4121 32.6416 28.3879C31.4481 30.6219 29.8016 32.6095 27.7968 34.2361C27.3243 34.6107 26.7305 34.819 26.1153 34.8258H24.2821C24.3621 35.0224 24.4034 35.2333 24.4034 35.4456C24.4053 35.7619 24.3117 36.0721 24.1336 36.3392C23.9554 36.6064 23.7003 36.8193 23.3986 36.9526C20.6806 38.1985 17.701 38.8432 14.6835 38.8382H9.58374L8.17924 41.1903ZM10.408 36.2174H14.6835C16.5381 36.2212 18.3812 35.9402 20.1417 35.3853L19.2761 35.0014C18.9588 34.8807 18.6938 34.6616 18.5239 34.3798C18.3541 34.0979 18.2893 33.7698 18.3402 33.4486C18.3945 33.1007 18.5795 32.7833 18.8611 32.5551C19.1426 32.327 19.5016 32.2035 19.8715 32.2077H26.1153C27.7842 30.7953 29.1629 29.1006 30.1813 27.2099C30.5686 26.4708 31.2922 25.1761 31.7374 24.3847L29.9553 21.5936C29.7314 21.2397 29.6552 20.8189 29.7416 20.4142H22.8018C22.2422 20.9052 21.6923 21.4075 21.152 21.9211C16.7555 26.0826 13.1249 30.9149 10.408 36.2174ZM38.4705 13.8623C39.8161 12.0567 41.244 10.3079 42.7502 8.62077H37.9771C35.0836 8.62221 32.2061 9.02841 29.437 9.82632V13.8492C31.9088 12.3132 34.5034 10.9637 37.1969 9.81321C37.5277 9.66907 37.9274 9.80011 38.0928 10.1146C38.1364 10.1948 38.162 10.2828 38.1682 10.3729C38.1743 10.463 38.1607 10.5534 38.1284 10.6383C38.096 10.7232 38.0456 10.8008 37.9801 10.8663C37.9147 10.9318 37.8358 10.9837 37.7483 11.0188C35.7805 11.8617 33.8652 12.8111 32.0117 13.8623H38.4705ZM22.4352 12.8402C21.2104 13.563 20.0431 14.3702 18.9425 15.2552C16.1901 17.4706 13.979 20.2301 12.4636 23.3412C10.9482 26.4524 10.1648 29.8405 10.1682 33.2691V33.7998C13.3194 28.2159 17.4705 23.1971 22.4352 18.9689V12.8402Z" fill="black"/>
</svg>
