<svg width="42" height="43" viewBox="0 0 42 43" fill="none" xmlns="http://www.w3.org/2000/svg">
<mask id="mask0_52_484" style="mask-type:alpha" maskUnits="userSpaceOnUse" x="0" y="0" width="42" height="43">
<rect y="0.5" width="42" height="42" fill="#D9D9D9"/>
</mask>
<g mask="url(#mask0_52_484)">
<path d="M12.25 25C11.2875 25 10.4635 24.6573 9.77813 23.9719C9.09271 23.2865 8.75 22.4625 8.75 21.5C8.75 20.5375 9.09271 19.7135 9.77813 19.0281C10.4635 18.3427 11.2875 18 12.25 18C13.2125 18 14.0365 18.3427 14.7219 19.0281C15.4073 19.7135 15.75 20.5375 15.75 21.5C15.75 22.4625 15.4073 23.2865 14.7219 23.9719C14.0365 24.6573 13.2125 25 12.25 25ZM12.25 32C9.33333 32 6.85417 30.9792 4.8125 28.9375C2.77083 26.8958 1.75 24.4167 1.75 21.5C1.75 18.5833 2.77083 16.1042 4.8125 14.0625C6.85417 12.0208 9.33333 11 12.25 11C14.2042 11 15.976 11.4812 17.5656 12.4437C19.1552 13.4062 20.4167 14.675 21.35 16.25H36.75L42 21.5L34.125 29.375L30.625 26.75L27.125 29.375L23.4062 26.75H21.35C20.4167 28.325 19.1552 29.5938 17.5656 30.5563C15.976 31.5188 14.2042 32 12.25 32ZM12.25 28.5C13.8833 28.5 15.3198 28.0042 16.5594 27.0125C17.799 26.0208 18.6229 24.7667 19.0312 23.25H24.5L27.0375 25.0438L30.625 22.375L33.7312 24.7812L37.0125 21.5L35.2625 19.75H19.0312C18.6229 18.2333 17.799 16.9792 16.5594 15.9875C15.3198 14.9958 13.8833 14.5 12.25 14.5C10.325 14.5 8.67708 15.1854 7.30625 16.5562C5.93542 17.9271 5.25 19.575 5.25 21.5C5.25 23.425 5.93542 25.0729 7.30625 26.4437C8.67708 27.8146 10.325 28.5 12.25 28.5Z" fill="#E79A0E"/>
</g>
</svg>
