<svg width="16" height="20" viewBox="0 0 16 20" fill="none" xmlns="http://www.w3.org/2000/svg">
<path d="M8 20C5.76667 20 3.875 19.225 2.325 17.675C0.775 16.125 0 14.2333 0 12V7C0 4.96667 0.8 3.29167 2.4 1.975C4 0.658333 5.86667 0 8 0C10.1333 0 12 0.658333 13.6 1.975C15.2 3.29167 16 4.96667 16 7V20H8ZM8 18H10C9.68333 17.5833 9.4375 17.1208 9.2625 16.6125C9.0875 16.1042 9 15.5667 9 15V13.95C8.83333 13.9667 8.66667 13.9792 8.5 13.9875C8.33333 13.9958 8.16667 14 8 14C6.88333 14 5.80417 13.8042 4.7625 13.4125C3.72083 13.0208 2.8 12.425 2 11.625V12C2 13.6667 2.58333 15.0833 3.75 16.25C4.91667 17.4167 6.33333 18 8 18ZM11 15C11 15.8333 11.2917 16.5417 11.875 17.125C12.4583 17.7083 13.1667 18 14 18V11.625C13.5667 12.0583 13.1 12.4292 12.6 12.7375C12.1 13.0458 11.5667 13.3 11 13.5V15ZM7 8C7 6.9 6.625 5.975 5.875 5.225C5.125 4.475 4.21667 4.075 3.15 4.025C2.78333 4.425 2.5 4.875 2.3 5.375C2.1 5.875 2 6.41667 2 7C2 8.48333 2.60417 9.6875 3.8125 10.6125C5.02083 11.5375 6.41667 12 8 12C9.58333 12 10.9792 11.5375 12.1875 10.6125C13.3958 9.6875 14 8.48333 14 7C14 6.41667 13.9 5.87083 13.7 5.3625C13.5 4.85417 13.2167 4.4 12.85 4C11.7833 4.03333 10.875 4.43333 10.125 5.2C9.375 5.96667 9 6.9 9 8H7ZM4.5 8C4.21667 8 3.97917 7.90417 3.7875 7.7125C3.59583 7.52083 3.5 7.28333 3.5 7C3.5 6.71667 3.59583 6.47917 3.7875 6.2875C3.97917 6.09583 4.21667 6 4.5 6C4.78333 6 5.02083 6.09583 5.2125 6.2875C5.40417 6.47917 5.5 6.71667 5.5 7C5.5 7.28333 5.40417 7.52083 5.2125 7.7125C5.02083 7.90417 4.78333 8 4.5 8ZM11.5 8C11.2167 8 10.9792 7.90417 10.7875 7.7125C10.5958 7.52083 10.5 7.28333 10.5 7C10.5 6.71667 10.5958 6.47917 10.7875 6.2875C10.9792 6.09583 11.2167 6 11.5 6C11.7833 6 12.0208 6.09583 12.2125 6.2875C12.4042 6.47917 12.5 6.71667 12.5 7C12.5 7.28333 12.4042 7.52083 12.2125 7.7125C12.0208 7.90417 11.7833 8 11.5 8ZM5.25 2.55C5.81667 2.78333 6.33333 3.09167 6.8 3.475C7.26667 3.85833 7.66667 4.29167 8 4.775C8.33333 4.29167 8.72917 3.85833 9.1875 3.475C9.64583 3.09167 10.1583 2.78333 10.725 2.55C10.3083 2.36667 9.87083 2.22917 9.4125 2.1375C8.95417 2.04583 8.48333 2 8 2C7.51667 2 7.04583 2.04583 6.5875 2.1375C6.12917 2.22917 5.68333 2.36667 5.25 2.55Z" fill="#1C1B1F"/>
</svg>
